<svg width="90" height="90" viewBox="0 0 90 90" fill="none" xmlns="http://www.w3.org/2000/svg">
<rect width="90" height="90" rx="45" fill="#954CED"/>
<g clip-path="url(#clip0_1_8460)">
<path d="M45.2705 26.7114C51.3184 26.7114 52.0346 26.7379 54.4131 26.844C56.6236 26.9413 57.8172 27.3126 58.613 27.6221C59.6652 28.0288 60.4256 28.524 61.2125 29.3109C62.0083 30.1067 62.4946 30.8582 62.9013 31.9104C63.2108 32.7062 63.5821 33.9087 63.6794 36.1103C63.7855 38.4976 63.812 39.2138 63.812 45.2529C63.812 51.3007 63.7855 52.0169 63.6794 54.3954C63.5821 56.6059 63.2108 57.7995 62.9013 58.5953C62.4946 59.6475 61.9994 60.4079 61.2125 61.1948C60.4167 61.9906 59.6652 62.4769 58.613 62.8836C57.8172 63.1931 56.6147 63.5645 54.4131 63.6617C52.0258 63.7678 51.3096 63.7944 45.2705 63.7944C39.2227 63.7944 38.5065 63.7678 36.128 63.6617C33.9175 63.5645 32.7239 63.1931 31.9281 62.8836C30.8759 62.4769 30.1155 61.9818 29.3286 61.1948C28.5328 60.3991 28.0465 59.6475 27.6398 58.5953C27.3303 57.7995 26.9589 56.597 26.8617 54.3954C26.7556 52.0081 26.7291 51.2919 26.7291 45.2529C26.7291 39.205 26.7556 38.4888 26.8617 36.1103C26.9589 33.8998 27.3303 32.7062 27.6398 31.9104C28.0465 30.8582 28.5417 30.0978 29.3286 29.3109C30.1244 28.5151 30.8759 28.0288 31.9281 27.6221C32.7239 27.3126 33.9264 26.9413 36.128 26.844C38.5065 26.7379 39.2227 26.7114 45.2705 26.7114ZM45.2705 22.6353C39.1254 22.6353 38.3562 22.6618 35.9423 22.7679C33.5373 22.874 31.8839 23.263 30.4515 23.8201C28.9572 24.4036 27.6928 25.1729 26.4373 26.4373C25.1729 27.6928 24.4036 28.9572 23.8201 30.4427C23.263 31.8839 22.874 33.5285 22.7679 35.9335C22.6618 38.3562 22.6353 39.1254 22.6353 45.2705C22.6353 51.4157 22.6618 52.1849 22.7679 54.5988C22.874 57.0038 23.263 58.6572 23.8201 60.0896C24.4036 61.5839 25.1729 62.8483 26.4373 64.1038C27.6928 65.3594 28.9572 66.1375 30.4427 66.7122C31.8839 67.2692 33.5285 67.6583 35.9335 67.7644C38.3473 67.8705 39.1166 67.897 45.2617 67.897C51.4068 67.897 52.1761 67.8705 54.5899 67.7644C56.9949 67.6583 58.6484 67.2692 60.0808 66.7122C61.5662 66.1375 62.8306 65.3594 64.0861 64.1038C65.3417 62.8483 66.1198 61.5839 66.6945 60.0984C67.2515 58.6572 67.6406 57.0126 67.7467 54.6076C67.8528 52.1938 67.8793 51.4245 67.8793 45.2794C67.8793 39.1343 67.8528 38.365 67.7467 35.9512C67.6406 33.5462 67.2515 31.8927 66.6945 30.4603C66.1375 28.9572 65.3682 27.6928 64.1038 26.4373C62.8483 25.1817 61.5839 24.4036 60.0984 23.8289C58.6572 23.2719 57.0126 22.8828 54.6076 22.7767C52.1849 22.6618 51.4157 22.6353 45.2705 22.6353Z" fill="white"/>
<path d="M45.2707 33.6434C38.8514 33.6434 33.6436 38.8513 33.6436 45.2705C33.6436 51.6898 38.8514 56.8977 45.2707 56.8977C51.6899 56.8977 56.8978 51.6898 56.8978 45.2705C56.8978 38.8513 51.6899 33.6434 45.2707 33.6434ZM45.2707 52.8127C41.1061 52.8127 37.7285 49.4351 37.7285 45.2705C37.7285 41.106 41.1061 37.7284 45.2707 37.7284C49.4352 37.7284 52.8128 41.106 52.8128 45.2705C52.8128 49.4351 49.4352 52.8127 45.2707 52.8127Z" fill="white"/>
<path d="M60.072 33.1836C60.072 34.6867 58.8518 35.8981 57.3575 35.8981C55.8544 35.8981 54.6431 34.6779 54.6431 33.1836C54.6431 31.6805 55.8633 30.4691 57.3575 30.4691C58.8518 30.4691 60.072 31.6893 60.072 33.1836Z" fill="white"/>
</g>
<defs>
<clipPath id="clip0_1_8460">
<rect width="45.2706" height="45.2706" fill="white" transform="translate(22.6353 22.6353)"/>
</clipPath>
</defs>
</svg>
