<svg width="158" height="207" viewBox="0 0 158 207" fill="none" xmlns="http://www.w3.org/2000/svg">
<path opacity="0.7" d="M53.0408 53.1274L71.816 84.3207" stroke="#A64CED" stroke-width="105.962" stroke-linecap="round"/>
<path d="M105.048 78.3888C104.021 78.6972 102.818 79.1359 101.495 79.7031M78.1013 100.143C70.1505 115.567 63.5844 125.521 49.9487 126.914C36.313 128.308 30.7068 110.122 32.2132 99.7301M78.1013 100.143C85.6178 101.643 103.165 102.656 113.224 94.7154C125.797 84.7892 122.832 74.4549 122.057 71.7923C121.282 69.1298 118.145 61.8672 110.731 59.4491M78.1013 100.143C83.4768 89.7158 94.2748 82.7976 101.495 79.7031M101.495 79.7031C96.5143 76.5574 83.8667 72.0259 73.1193 79.0656C70.3814 80.8589 67.9921 83.1708 65.8827 85.7328M43.5316 109.454C44.0771 110.717 46.1125 113.695 49.9046 111.197C54.8635 107.932 57.6419 95.7422 65.8827 85.7328M43.5316 109.454C42.1191 108.265 44.0624 105.478 45.0527 104.301C44.0624 105.478 42.1034 107.882 40.9907 105.306C39.6269 102.148 47.3701 93.1839 53.4557 89.0569C58.3241 85.7553 63.7689 85.4651 65.8827 85.7328M43.5316 109.454C44.944 110.642 46.9763 108.466 47.8159 107.229C46.9066 108.304 47.1522 110.203 48.5482 110.659C49.9442 111.115 52.5133 108.852 53.1779 107.499" stroke="black" stroke-width="2.14163" stroke-linecap="round" stroke-linejoin="round"/>
<path d="M66.0145 136.3L69.903 144.844M95.5139 117.036L110.11 151.118M69.903 144.844L48.9981 155.99L58.2458 185.879L60.4788 181.211C62.0146 178 64.5333 175.362 67.6696 173.68L80.0133 167.058M69.903 144.844L80.0133 167.058M80.0133 167.058L93.39 196.448L130.479 184.973L127.821 183.505C124.56 181.703 121.993 178.865 120.526 175.439L110.11 151.118M110.11 151.118C115.989 147.869 127.659 138.514 124.4 127.982C121.141 117.45 113.508 109.519 113.508 109.519" stroke="black" stroke-width="2.14163" stroke-linecap="round" stroke-linejoin="round"/>
<path d="M39.4045 44.8751C45.2284 46.8466 56.2497 41.8879 57.1836 33.9113" stroke="black" stroke-width="2.14163" stroke-linecap="round" stroke-linejoin="round"/>
<circle cx="20.8565" cy="37.8651" r="2.67704" transform="rotate(-17.1923 20.8565 37.8651)" fill="#1F1F1F"/>
<circle cx="41.0728" cy="27.1266" r="2.67704" transform="rotate(-17.1923 41.0728 27.1266)" fill="#1F1F1F"/>
</svg>
