<svg width="881" height="503" viewBox="0 0 881 503" fill="none" xmlns="http://www.w3.org/2000/svg">
<path fill-rule="evenodd" clip-rule="evenodd" d="M169.481 251.337C169.477 296.649 206.206 333.385 251.516 333.389L251.517 333.389L796.461 333.441C843.129 333.445 880.957 371.281 880.953 417.949C880.948 464.617 843.113 502.445 796.445 502.441L251.501 502.389C251.501 502.389 251.501 502.389 251.501 502.389C112.852 502.376 0.468126 389.968 0.481399 251.321C0.494604 112.885 112.573 0.587759 251.008 0.303145L453.422 -0.11283C500.09 -0.208779 537.999 37.5454 538.095 84.2133C538.191 130.881 500.437 168.791 453.769 168.887L251.356 169.303C206.114 169.396 169.486 206.095 169.481 251.337Z" fill="#FFAA4C"/>
</svg>
