<svg width="39" height="39" viewBox="0 0 39 39" fill="none" xmlns="http://www.w3.org/2000/svg">
<g opacity="0.7" clip-path="url(#clip0_1_8398)">
<g clip-path="url(#clip1_1_8398)">
<path d="M36.6539 19.5C36.6576 19.9998 36.5055 20.4884 36.2189 20.8979C35.9322 21.3074 35.5252 21.6175 35.0543 21.7852L25.3196 25.3195L21.7852 35.0543C21.612 35.5208 21.3003 35.9231 20.8918 36.2072C20.4833 36.4913 19.9976 36.6436 19.5 36.6436C19.0024 36.6436 18.5168 36.4913 18.1083 36.2072C17.6998 35.9231 17.388 35.5208 17.2149 35.0543L13.6805 25.3195L3.94573 21.7852C3.47925 21.612 3.07693 21.3002 2.79283 20.8917C2.50873 20.4832 2.35645 19.9976 2.35645 19.5C2.35645 19.0024 2.50873 18.5168 2.79283 18.1083C3.07693 17.6998 3.47925 17.388 3.94573 17.2148L13.6805 13.6805L17.2149 3.9457C17.388 3.47922 17.6998 3.0769 18.1083 2.7928C18.5168 2.5087 19.0024 2.35641 19.5 2.35641C19.9976 2.35641 20.4833 2.5087 20.8918 2.7928C21.3003 3.0769 21.612 3.47922 21.7852 3.9457L25.3196 13.6805L35.0543 17.2148C35.5252 17.3825 35.9322 17.6926 36.2189 18.1021C36.5055 18.5116 36.6576 19.0002 36.6539 19.5Z" fill="#FFAA4C"/>
</g>
</g>
<defs>
<clipPath id="clip0_1_8398">
<rect width="39" height="39" fill="white"/>
</clipPath>
<clipPath id="clip1_1_8398">
<rect width="39" height="39" fill="white"/>
</clipPath>
</defs>
</svg>
